<svg xmlns="http://www.w3.org/2000/svg" width="46.359" height="55.96" viewBox="0 0 46.359 55.96">
  <g id="location-icon" transform="translate(-633 -206.333)">
    <g id="Caminho_56" data-name="Caminho 56" transform="translate(0)" fill="none" stroke-miterlimit="10">
      <path d="M672.57,213.123A23.18,23.18,0,0,0,639.789,245.9l16.39,16.39L672.57,245.9A23.18,23.18,0,0,0,672.57,213.123Z" stroke="none"/>
      <path d="M 656.1793212890625 207.33349609375 C 653.2982177734375 207.33349609375 650.489990234375 207.8798828125 647.8326416015625 208.9574584960938 C 645.0819702148438 210.0728759765625 642.6135864257813 211.7121124267578 640.4960327148438 213.8296203613281 C 638.3784790039063 215.9471740722656 636.7391967773438 218.4155731201172 635.6237182617188 221.1662445068359 C 634.5460815429688 223.8235931396484 633.9996948242188 226.6318206787109 633.9996948242188 229.5129089355469 C 633.9996948242188 232.3939971923828 634.5460815429688 235.2022247314453 635.6237182617188 237.8595733642578 C 636.7391967773438 240.6102447509766 638.3784790039063 243.0786437988281 640.4960327148438 245.1961975097656 L 656.17919921875 260.8793640136719 L 671.862548828125 245.1962127685547 C 673.9801025390625 243.0786437988281 675.6193237304688 240.6102447509766 676.7347412109375 237.8595733642578 C 677.8123168945313 235.2022247314453 678.3587036132813 232.3940124511719 678.3587036132813 229.5129089355469 C 678.3587036132813 226.6318054199219 677.8123168945313 223.8235931396484 676.7347412109375 221.1662445068359 C 675.6193237304688 218.4155731201172 673.9801025390625 215.9471740722656 671.8626098632813 213.8296203613281 C 669.7450561523438 211.7121124267578 667.276611328125 210.0728759765625 664.5260009765625 208.9574584960938 C 661.86865234375 207.8798828125 659.0604248046875 207.33349609375 656.1793212890625 207.33349609375 M 656.1793212890625 206.33349609375 C 662.1114501953125 206.33349609375 668.0435791015625 208.5964965820313 672.5697021484375 213.1225128173828 C 681.6217041015625 222.1747589111328 681.6217041015625 236.8510589599609 672.5697021484375 245.9033050537109 L 656.17919921875 262.2935791015625 L 639.7889404296875 245.9033050537109 C 630.7366333007813 236.8510589599609 630.7366333007813 222.1747589111328 639.7889404296875 213.1225128173828 C 644.3150634765625 208.5964965820313 650.2471923828125 206.33349609375 656.1793212890625 206.33349609375 Z" stroke="none" fill="#347ae1"/>
    </g>
    <g id="Elipse_12" data-name="Elipse 12" transform="translate(644.223 217.556)" fill="none" stroke="#347ae1" stroke-miterlimit="10" stroke-width="1">
      <circle cx="11.957" cy="11.957" r="11.957" stroke="none"/>
      <circle cx="11.957" cy="11.957" r="11.457" fill="none"/>
    </g>
  </g>
</svg>
