<svg id="logo-horiz" xmlns="http://www.w3.org/2000/svg" width="482" height="130.5" viewBox="0 0 482 130.5">
  <g id="Grupo_6" data-name="Grupo 6">
    <path id="Caminho_27" data-name="Caminho 27" d="M4246.738,1247.434" transform="translate(-4181.237 -1151.555)" fill="none" stroke="#000" stroke-miterlimit="10" stroke-width="1"/>
    <path id="Caminho_28" data-name="Caminho 28" d="M4140.511,1216.852a70.074,70.074,0,0,0,11.854,21.437s-.339-16.586,24.144-16.586,40.012,9.83,61.387,9.83a270.113,270.113,0,0,0,29.047-1.673,143.7,143.7,0,0,1-31.056-4.152c-21.741-5.633-60.109-23.846-74.725-23.846C4141.979,1201.861,4140.511,1216.852,4140.511,1216.852Z" transform="translate(-4140.511 -1133.98)" fill="#347ae1"/>
    <path id="Caminho_29" data-name="Caminho 29" d="M4276.438,1250.281c-12.821,17.555-34.837,30.2-58.3,30.2a70.424,70.424,0,0,1-49.081-19.809s-3.811-17.326,18.113-17.326,40.56,9.284,63.945,9.284S4276.438,1250.281,4276.438,1250.281Z" transform="translate(-4151.36 -1149.977)" fill="#ffcb39"/>
    <path id="Caminho_30" data-name="Caminho 30" d="M4256.6,1212.1s22.333-12.2,36.767-12.014,22.655,5.643,22.655,12.014-8.4,10.012-19.732,10.012S4256.6,1212.1,4256.6,1212.1Z" transform="translate(-4185.017 -1133.293)" fill="#347ae1"/>
    <path id="Caminho_31" data-name="Caminho 31" d="M4211.25,1116.292a35.544,35.544,0,0,0-35.609,35.479q0,1.366.1,2.706s30.276,9.508,32.606,11.283c5.07-.955,21.365-10.529,38.5-13.047.311-.046.013-.627.013-.942A35.544,35.544,0,0,0,4211.25,1116.292Zm-22.315,1.343c2.226-1.315,2.942-7.874-.687-11.338a47.667,47.667,0,0,0-10.444-7.376,47.344,47.344,0,0,0,1.479,12.669C4180.591,1116.426,4186.709,1118.949,4188.936,1117.635Zm13.542-4.454c2.532-.535,5.319-6.52,2.994-10.96a47.5,47.5,0,0,0-7.522-10.321,47.348,47.348,0,0,0-2.671,12.474C4194.961,1109.373,4199.946,1113.716,4202.478,1113.181Zm15.938-.2c2.57.3,7.125-4.493,6.34-9.439a47.379,47.379,0,0,0-3.832-12.17,47.435,47.435,0,0,0-6.52,10.976C4212.508,1106.986,4215.845,1112.684,4218.416,1112.981Zm24.034,11.557c1.839,1.814,8.389.848,10.836-3.526a47.381,47.381,0,0,0,4.524-11.931,47.751,47.751,0,0,0-11.93,4.626C4241.516,1116.188,4240.61,1122.724,4242.45,1124.538Zm-9.852-7.4c2.341,1.1,8.192-1.989,9.036-6.926a47.371,47.371,0,0,0,.272-12.752,47.611,47.611,0,0,0-9.7,8.326C4228.922,1109.58,4230.257,1116.042,4232.6,1117.141Zm-53.138,8.006c1.652-1.985.109-8.4-4.48-10.444a47.8,47.8,0,0,0-12.327-3.44,47.393,47.393,0,0,0,5.676,11.432C4171.194,1126.81,4177.808,1127.132,4179.46,1125.147Zm-18.013,18.5a47.683,47.683,0,0,0-11.037,6.46,47.781,47.781,0,0,0,12.2,3.857c4.962.8,9.783-3.725,9.494-6.287S4166.108,1141.768,4161.447,1143.643Zm98.5-9a47.525,47.525,0,0,0,8.615-9.433,47.826,47.826,0,0,0-12.8-.074c-4.977.706-8.233,6.451-7.193,8.812S4256.055,1137.813,4259.946,1134.643Zm.646,6.559c-4.837-1.363-10.149,2.575-10.16,5.153s5.274,6.556,10.121,5.228a47.737,47.737,0,0,0,11.712-5.147A47.745,47.745,0,0,0,4260.592,1141.2Zm-95.031-14.253a47.85,47.85,0,0,0-12.724,1.4,47.6,47.6,0,0,0,9.552,8.492c4.2,2.751,10.457.588,11.245-1.868S4170.583,1127.137,4165.561,1126.949Z" transform="translate(-4144.306 -1091.372)" fill="#fe7708"/>
  </g>
  <g id="Grupo_9" data-name="Grupo 9" transform="translate(161.346 32.575)">
    <g id="Grupo_7" data-name="Grupo 7" transform="translate(0)">
      <path id="Caminho_32" data-name="Caminho 32" d="M4417.975,1182.994a14.249,14.249,0,0,1-4.8.728q-8.552,0-11-8.053l2.139-.727q1.824,6.651,8.865,6.65a9.359,9.359,0,0,0,6.31-1.974,7.4,7.4,0,0,0,2.347-5.923,7.841,7.841,0,0,0-2.764-6.131,11.751,11.751,0,0,0-2.242-1.507q-1.513-.83-3.859-1.87a24.921,24.921,0,0,1-6.049-3.429,8.349,8.349,0,0,1,.051-12.366,9.738,9.738,0,0,1,6.675-2.39q6.571,0,9.282,4.884l-2.034.883a7.061,7.061,0,0,0-2.5-2.546,8.837,8.837,0,0,0-4.746-1.143,7.656,7.656,0,0,0-5.111,1.715,6.05,6.05,0,0,0,.1,9.4,28.035,28.035,0,0,0,5.215,2.806,39.512,39.512,0,0,1,4.224,2.156,15.091,15.091,0,0,1,2.868,2.156,9.911,9.911,0,0,1,3.024,7.378Q4423.972,1180.76,4417.975,1182.994Z" transform="translate(-4402.174 -1145.014)"/>
      <path id="Caminho_33" data-name="Caminho 33" d="M4473.78,1178.278q-5.372,5.352-13.819,5.352t-13.767-5.3a18.6,18.6,0,0,1-5.371-13.768q0-8.417,5.319-13.716,5.37-5.352,13.819-5.352a18.954,18.954,0,0,1,13.819,5.3,18.6,18.6,0,0,1,5.371,13.769Q4479.151,1172.979,4473.78,1178.278Zm-1.512-25.926a18.1,18.1,0,0,0-24.509,0,16.945,16.945,0,0,0,12.2,29.148,16.9,16.9,0,0,0,12.307-4.677,18.148,18.148,0,0,0,0-24.471Z" transform="translate(-4416.991 -1144.818)"/>
      <path id="Caminho_34" data-name="Caminho 34" d="M4512.537,1183.437v-37.1h2.086v34.967h10.482v2.13Z" transform="translate(-4444.485 -1145.144)"/>
      <path id="Caminho_35" data-name="Caminho 35" d="M4566.378,1151.787v31.486h-2.086v-37.357l27.795,32.473v-32.212h2.138v37.72Z" transform="translate(-4464.327 -1144.981)"/>
      <path id="Caminho_36" data-name="Caminho 36" d="M4648.508,1182.686l-4.276-11.118h-16.949l-4.327,11.118h-2.086l14.862-38.292,14.915,38.292Zm-12.776-32.888-7.613,19.639h15.226Z" transform="translate(-4486.018 -1144.394)"/>
      <path id="Caminho_37" data-name="Caminho 37" d="M4688.175,1182.994a14.257,14.257,0,0,1-4.8.728q-8.552,0-11-8.053l2.138-.727q1.825,6.651,8.865,6.65a9.358,9.358,0,0,0,6.311-1.974,7.4,7.4,0,0,0,2.347-5.923,7.84,7.84,0,0,0-2.764-6.131,11.757,11.757,0,0,0-2.243-1.507q-1.512-.83-3.859-1.87a24.916,24.916,0,0,1-6.048-3.429,8.351,8.351,0,0,1,.051-12.366,9.74,9.74,0,0,1,6.676-2.39q6.57,0,9.282,4.884l-2.035.883a7.061,7.061,0,0,0-2.5-2.546,8.831,8.831,0,0,0-4.745-1.143,7.657,7.657,0,0,0-5.112,1.715,6.051,6.051,0,0,0,.1,9.4,28.052,28.052,0,0,0,5.215,2.806,39.558,39.558,0,0,1,4.224,2.156,15.024,15.024,0,0,1,2.867,2.156,9.906,9.906,0,0,1,3.025,7.378Q4694.172,1180.76,4688.175,1182.994Z" transform="translate(-4505.764 -1145.014)"/>
      <path id="Caminho_38" data-name="Caminho 38" d="M4740.746,1180.929a15.761,15.761,0,0,1-7.927,2.6q-.575.051-1.252.078t-1.407.026q-8.447,0-13.768-5.3a18.6,18.6,0,0,1-5.371-13.768q0-8.417,5.319-13.716,5.37-5.352,13.819-5.352a25.216,25.216,0,0,1,8.657,1.4,17.417,17.417,0,0,1,4.432,2.546v2.65a18.886,18.886,0,0,0-4.8-2.91,21.826,21.826,0,0,0-8.292-1.61,16.97,16.97,0,1,0,0,33.928,18.4,18.4,0,0,0,8.083-1.662,38.21,38.21,0,0,0,5.005-3.17v2.442Z" transform="translate(-4520.581 -1144.818)"/>
      <path id="Caminho_39" data-name="Caminho 39" d="M4768.276,1183.437v-37.1h17.887v2.129h-15.75v13.509h15.75v2.286h-15.75v17.042h15.75v2.13Z" transform="translate(-4542.532 -1145.144)"/>
      <path id="Caminho_40" data-name="Caminho 40" d="M4806.558,1151.787v31.486h-2.086v-37.357l27.795,32.473v-32.212h2.139v37.72Z" transform="translate(-4556.407 -1144.981)"/>
      <path id="Caminho_41" data-name="Caminho 41" d="M4868.384,1148.469v34.967h-2.139v-34.967h-8.239v-2.129h18.617v2.129Z" transform="translate(-4576.932 -1145.144)"/>
      <path id="Caminho_42" data-name="Caminho 42" d="M4893.187,1183.437v-37.1h17.887v2.129h-15.749v13.509h15.749v2.286h-15.749v17.042h15.749v2.13Z" transform="translate(-4590.42 -1145.144)"/>
    </g>
    <g id="Grupo_8" data-name="Grupo 8" transform="translate(0 53.761)">
      <path id="Caminho_43" data-name="Caminho 43" d="M4404.141,1241.867h5.14v1.565h-7.107v-11.28h1.967Z" transform="translate(-4402.174 -1231.997)" fill="#393939"/>
      <path id="Caminho_44" data-name="Caminho 44" d="M4433.449,1237.989a6.9,6.9,0,0,1-.576,2.909,4.339,4.339,0,0,1-1.645,1.922,4.838,4.838,0,0,1-4.914,0,4.4,4.4,0,0,1-1.665-1.91,6.69,6.69,0,0,1-.6-2.859v-.635a6.843,6.843,0,0,1,.587-2.913,4.4,4.4,0,0,1,1.657-1.933,4.848,4.848,0,0,1,4.906-.008,4.339,4.339,0,0,1,1.652,1.906,6.825,6.825,0,0,1,.592,2.894Zm-1.967-.589a4.918,4.918,0,0,0-.712-2.874,2.516,2.516,0,0,0-4.012,0,4.824,4.824,0,0,0-.735,2.816v.651a4.883,4.883,0,0,0,.727,2.875,2.345,2.345,0,0,0,2.018,1.015,2.318,2.318,0,0,0,2.01-.991,4.991,4.991,0,0,0,.7-2.9Z" transform="translate(-4410.563 -1231.9)" fill="#393939"/>
      <path id="Caminho_45" data-name="Caminho 45" d="M4458.375,1233.733h-3.532v9.7h-1.951v-9.7h-3.5v-1.581h8.981Z" transform="translate(-4420.278 -1231.997)" fill="#393939"/>
      <path id="Caminho_46" data-name="Caminho 46" d="M4482.28,1238.4h-4.65v3.471h5.436v1.565h-7.4v-11.28h7.348v1.581h-5.381v3.114h4.65Z" transform="translate(-4430.348 -1231.997)" fill="#393939"/>
      <path id="Caminho_47" data-name="Caminho 47" d="M4505.271,1240.806h-4.386l-.918,2.626h-2.045l4.276-11.28h1.766l4.284,11.28H4506.2Zm-3.833-1.581h3.281l-1.641-4.679Z" transform="translate(-4438.883 -1231.997)" fill="#393939"/>
      <path id="Caminho_48" data-name="Caminho 48" d="M4528.6,1232.152l3.266,8.646,3.258-8.646h2.542v11.28H4535.7v-3.719l.194-4.973-3.343,8.692h-1.407l-3.335-8.684.194,4.965v3.719h-1.959v-11.28Z" transform="translate(-4449.665 -1231.997)" fill="#393939"/>
      <path id="Caminho_49" data-name="Caminho 49" d="M4564.57,1238.4h-4.649v3.471h5.435v1.565h-7.4v-11.28h7.348v1.581h-5.381v3.114h4.649Z" transform="translate(-4461.897 -1231.997)" fill="#393939"/>
      <path id="Caminho_50" data-name="Caminho 50" d="M4590.833,1243.432h-1.967l-5.046-8v8h-1.968v-11.28h1.968l5.062,8.034v-8.034h1.951Z" transform="translate(-4471.06 -1231.997)" fill="#393939"/>
      <path id="Caminho_51" data-name="Caminho 51" d="M4616.8,1233.733h-3.53v9.7h-1.952v-9.7h-3.5v-1.581h8.981Z" transform="translate(-4481.015 -1231.997)" fill="#393939"/>
      <path id="Caminho_52" data-name="Caminho 52" d="M4642.55,1237.989a6.885,6.885,0,0,1-.576,2.909,4.338,4.338,0,0,1-1.644,1.922,4.84,4.84,0,0,1-4.915,0,4.407,4.407,0,0,1-1.664-1.91,6.683,6.683,0,0,1-.595-2.859v-.635a6.843,6.843,0,0,1,.587-2.913,4.406,4.406,0,0,1,1.657-1.933,4.848,4.848,0,0,1,4.906-.008,4.342,4.342,0,0,1,1.652,1.906,6.81,6.81,0,0,1,.592,2.894Zm-1.967-.589a4.914,4.914,0,0,0-.712-2.874,2.516,2.516,0,0,0-4.012,0,4.828,4.828,0,0,0-.735,2.816v.651a4.883,4.883,0,0,0,.727,2.875,2.345,2.345,0,0,0,2.018,1.015,2.317,2.317,0,0,0,2.01-.991,4.991,4.991,0,0,0,.7-2.9Z" transform="translate(-4490.729 -1231.9)" fill="#393939"/>
    </g>
  </g>
</svg>
