<svg xmlns="http://www.w3.org/2000/svg" width="71.079" height="73.636" viewBox="0 0 71.079 73.636">
  <g id="pavement-icon" transform="translate(-1924.052 -2529.896)">
    <path id="Caminho_60" data-name="Caminho 60" d="M1945.52,2542.5h-13.979l-6.989,12.106,6.989,12.106h13.979l6.99-12.106Z" fill="none" stroke="#347ae1" stroke-linecap="round" stroke-linejoin="round" stroke-width="1"/>
    <path id="Caminho_61" data-name="Caminho 61" d="M1966.7,2530.4h-13.979l-6.989,12.106,6.989,12.106H1966.7l6.989-12.106Z" fill="none" stroke="#347ae1" stroke-linecap="round" stroke-linejoin="round" stroke-width="1"/>
    <path id="Caminho_62" data-name="Caminho 62" d="M1987.642,2542.5h-13.979l-6.989,12.106,6.989,12.106h13.979l6.989-12.106Z" fill="none" stroke="#347ae1" stroke-linecap="round" stroke-linejoin="round" stroke-width="1"/>
    <path id="Caminho_63" data-name="Caminho 63" d="M1966.7,2554.608h-13.979l-6.989,12.106,6.989,12.106H1966.7l6.989-12.106Z" fill="none" stroke="#347ae1" stroke-linecap="round" stroke-linejoin="round" stroke-width="1"/>
    <path id="Caminho_64" data-name="Caminho 64" d="M1945.52,2566.714h-13.979l-6.989,12.106,6.989,12.106h13.979l6.99-12.106Z" fill="none" stroke="#347ae1" stroke-linecap="round" stroke-linejoin="round" stroke-width="1"/>
    <path id="Caminho_65" data-name="Caminho 65" d="M1987.642,2566.714h-13.979l-6.989,12.106,6.989,12.106h13.979l6.989-12.106Z" fill="none" stroke="#347ae1" stroke-linecap="round" stroke-linejoin="round" stroke-width="1"/>
    <path id="Caminho_66" data-name="Caminho 66" d="M1966.7,2578.82h-13.979l-6.989,12.106,6.989,12.106H1966.7l6.989-12.106Z" fill="none" stroke="#347ae1" stroke-linecap="round" stroke-linejoin="round" stroke-width="1"/>
  </g>
</svg>
