<svg xmlns="http://www.w3.org/2000/svg" width="97.81" height="78.189" viewBox="0 0 97.81 78.189">
  <g id="trees-icon" transform="translate(-2369.88 -2524.823)">
    <g id="Grupo_43" data-name="Grupo 43">
      <g id="Grupo_41" data-name="Grupo 41">
        <path id="Caminho_72" data-name="Caminho 72" d="M2387.926,2556.757a165.866,165.866,0,0,0-7.863-24.031s-9.683,22.743-9.683,37.471,9.683,15.864,9.683,15.864a9.019,9.019,0,0,0,3.185-1.207" fill="none" stroke="#347ae1" stroke-linecap="round" stroke-linejoin="round" stroke-width="1"/>
        <line id="Linha_9" data-name="Linha 9" y1="16.452" transform="translate(2380.063 2586.061)" fill="#fff" stroke="#347ae1" stroke-linecap="round" stroke-linejoin="round" stroke-width="1"/>
      </g>
      <g id="Grupo_42" data-name="Grupo 42">
        <line id="Linha_10" data-name="Linha 10" y1="41.991" transform="translate(2409.844 2560.521)" fill="#fff" stroke="#347ae1" stroke-linecap="round" stroke-linejoin="round" stroke-width="1"/>
        <line id="Linha_11" data-name="Linha 11" x1="11.364" y1="11.364" transform="translate(2398.48 2580.369)" fill="none" stroke="#347ae1" stroke-linecap="round" stroke-linejoin="round" stroke-width="1"/>
        <circle id="Elipse_22" data-name="Elipse 22" cx="12.359" cy="12.359" r="12.359" transform="translate(2377.386 2559.275)" fill="none" stroke="#347ae1" stroke-linecap="round" stroke-linejoin="round" stroke-width="1"/>
        <line id="Linha_12" data-name="Linha 12" y1="12.436" x2="12.436" transform="translate(2409.844 2573.385)" fill="none" stroke="#347ae1" stroke-linecap="round" stroke-linejoin="round" stroke-width="1"/>
        <circle id="Elipse_23" data-name="Elipse 23" cx="9.013" cy="9.013" r="9.013" transform="translate(2419.7 2557.94)" fill="none" stroke="#347ae1" stroke-linecap="round" stroke-linejoin="round" stroke-width="1"/>
        <circle id="Elipse_24" data-name="Elipse 24" cx="17.493" cy="17.493" r="17.493" transform="translate(2392.35 2525.323)" fill="none" stroke="#347ae1" stroke-linecap="round" stroke-linejoin="round" stroke-width="1"/>
      </g>
    </g>
    <g id="Grupo_44" data-name="Grupo 44">
      <line id="Linha_13" data-name="Linha 13" y1="31.094" transform="translate(2439.223 2571.418)" fill="#fff" stroke="#347ae1" stroke-linecap="round" stroke-linejoin="round" stroke-width="1"/>
      <path id="Caminho_73" data-name="Caminho 73" d="M2429.772,2543.282c.115-.022.23-.043.346-.063a51.929,51.929,0,0,1,9.1-.786c15.446,0,27.967,6.489,27.967,14.493s-12.521,14.492-27.967,14.492" fill="none" stroke="#347ae1" stroke-linecap="round" stroke-linejoin="round" stroke-width="1"/>
      <path id="Caminho_74" data-name="Caminho 74" d="M2416.062,2565.051a15.778,15.778,0,0,1-2.427-2.267" fill="none" stroke="#347ae1" stroke-linecap="round" stroke-linejoin="round" stroke-width="1"/>
      <line id="Linha_14" data-name="Linha 14" x1="5.649" y1="7.05" transform="translate(2433.574 2577.233)" fill="#fff" stroke="#347ae1" stroke-linecap="round" stroke-linejoin="round" stroke-width="1"/>
      <line id="Linha_15" data-name="Linha 15" y1="8.511" x2="9.555" transform="translate(2439.223 2570.55)" fill="none" stroke="#347ae1" stroke-linecap="round" stroke-linejoin="round" stroke-width="1"/>
    </g>
  </g>
</svg>
