<svg xmlns="http://www.w3.org/2000/svg" width="82.386" height="78.602" viewBox="0 0 82.386 78.602">
  <g id="tubes-icon" transform="translate(-1710.463 -2528.756)">
    <g id="Grupo_31" data-name="Grupo 31">
      <circle id="Elipse_13" data-name="Elipse 13" cx="14.611" cy="14.611" r="14.611" transform="translate(1710.963 2577.637)" fill="none" stroke="#347ae1" stroke-linecap="round" stroke-linejoin="round" stroke-width="1"/>
      <circle id="Elipse_14" data-name="Elipse 14" cx="8.132" cy="8.132" r="8.132" transform="translate(1717.441 2584.115)" fill="none" stroke="#347ae1" stroke-linecap="round" stroke-linejoin="round" stroke-width="1"/>
      <line id="Linha_1" data-name="Linha 1" x1="9.134" y2="9.134" transform="translate(1715.242 2572.782)" fill="none" stroke="#347ae1" stroke-linecap="round" stroke-linejoin="round" stroke-width="1"/>
      <line id="Linha_2" data-name="Linha 2" y1="3.512" x2="3.512" transform="translate(1735.904 2599.066)" fill="none" stroke="#347ae1" stroke-linecap="round" stroke-linejoin="round" stroke-width="1"/>
    </g>
    <g id="Grupo_32" data-name="Grupo 32">
      <circle id="Elipse_15" data-name="Elipse 15" cx="14.611" cy="14.611" r="14.611" transform="translate(1740.184 2577.637)" fill="none" stroke="#347ae1" stroke-linecap="round" stroke-linejoin="round" stroke-width="1"/>
      <circle id="Elipse_16" data-name="Elipse 16" cx="8.132" cy="8.132" r="8.132" transform="translate(1746.662 2584.115)" fill="none" stroke="#347ae1" stroke-linecap="round" stroke-linejoin="round" stroke-width="1"/>
      <path id="Caminho_57" data-name="Caminho 57" d="M1765.126,2602.579l22.943-22.944a14.612,14.612,0,0,0-12.836-24.727" fill="none" stroke="#347ae1" stroke-linecap="round" stroke-linejoin="round" stroke-width="1"/>
    </g>
    <g id="Grupo_33" data-name="Grupo 33">
      <circle id="Elipse_17" data-name="Elipse 17" cx="14.611" cy="14.611" r="14.611" transform="translate(1725.573 2552.199)" fill="none" stroke="#347ae1" stroke-linecap="round" stroke-linejoin="round" stroke-width="1"/>
      <circle id="Elipse_18" data-name="Elipse 18" cx="8.132" cy="8.132" r="8.132" transform="translate(1732.052 2558.677)" fill="none" stroke="#347ae1" stroke-linecap="round" stroke-linejoin="round" stroke-width="1"/>
      <path id="Caminho_58" data-name="Caminho 58" d="M1750.515,2577.141l22.943-22.943a14.611,14.611,0,0,0-20.662-20.663l-22.944,22.943" fill="none" stroke="#347ae1" stroke-linecap="round" stroke-linejoin="round" stroke-width="1"/>
    </g>
  </g>
</svg>
