<svg xmlns="http://www.w3.org/2000/svg" width="62.216" height="75.893" viewBox="0 0 62.216 75.893">
  <g id="water-icon" transform="translate(-2044.674 -2524.838)">
    <g id="Caminho_67" data-name="Caminho 67" fill="none" stroke-linecap="round" stroke-linejoin="round">
      <path d="M2052.01,2593.4a25.048,25.048,0,0,0,35.423-35.423l-17.712-17.712-17.711,17.712A25.048,25.048,0,0,0,2052.01,2593.4Z" stroke="none"/>
      <path d="M 2069.721435546875 2599.730712890625 C 2072.84521484375 2599.730712890625 2075.889892578125 2599.138427734375 2078.771240234375 2597.97021484375 C 2081.753662109375 2596.7607421875 2084.429931640625 2594.983642578125 2086.72607421875 2592.68798828125 C 2089.02197265625 2590.39208984375 2090.79931640625 2587.715576171875 2092.0087890625 2584.733154296875 C 2093.17724609375 2581.851806640625 2093.76953125 2578.806884765625 2093.76953125 2575.68310546875 C 2093.76953125 2572.559326171875 2093.17724609375 2569.514404296875 2092.0087890625 2566.63330078125 C 2090.79931640625 2563.65087890625 2089.02197265625 2560.974853515625 2086.72607421875 2558.678955078125 L 2069.720947265625 2541.67431640625 L 2052.717041015625 2558.678955078125 C 2050.421142578125 2560.974853515625 2048.643798828125 2563.65087890625 2047.434326171875 2566.63330078125 C 2046.265991210938 2569.514404296875 2045.673583984375 2572.559326171875 2045.673583984375 2575.68310546875 C 2045.673583984375 2578.806884765625 2046.265991210938 2581.851806640625 2047.434326171875 2584.733154296875 C 2048.643798828125 2587.715576171875 2050.421142578125 2590.39208984375 2052.717041015625 2592.68798828125 C 2055.012939453125 2594.983642578125 2057.689453125 2596.7607421875 2060.671875 2597.97021484375 C 2063.552978515625 2599.138427734375 2066.59765625 2599.730712890625 2069.721435546875 2599.730712890625 M 2069.721435546875 2600.730712890625 C 2063.311279296875 2600.730712890625 2056.90087890625 2598.28564453125 2052.010009765625 2593.39501953125 C 2042.22802734375 2583.613037109375 2042.22802734375 2567.7529296875 2052.010009765625 2557.971923828125 L 2069.720947265625 2540.260009765625 L 2087.43310546875 2557.971923828125 C 2097.215087890625 2567.7529296875 2097.215087890625 2583.613037109375 2087.43310546875 2593.39501953125 C 2082.5419921875 2598.28564453125 2076.1318359375 2600.730712890625 2069.721435546875 2600.730712890625 Z" stroke="none" fill="#347ae1"/>
    </g>
    <g id="Caminho_68" data-name="Caminho 68" fill="none" stroke-linecap="round" stroke-linejoin="round">
      <path d="M2087.906,2548.426a11.12,11.12,0,0,0,15.726-15.726l-7.863-7.862-7.863,7.862A11.121,11.121,0,0,0,2087.906,2548.426Z" stroke="none"/>
      <path d="M 2095.76953125 2550.683349609375 C 2098.47265625 2550.683349609375 2101.013671875 2549.630615234375 2102.925048828125 2547.718994140625 C 2104.836669921875 2545.807373046875 2105.889404296875 2543.265869140625 2105.889404296875 2540.56298828125 C 2105.889404296875 2537.860107421875 2104.836669921875 2535.318603515625 2102.925048828125 2533.406982421875 L 2095.76904296875 2526.251953125 L 2088.61328125 2533.406982421875 C 2086.701904296875 2535.318603515625 2085.6494140625 2537.85986328125 2085.6494140625 2540.56298828125 C 2085.6494140625 2543.26611328125 2086.701904296875 2545.807373046875 2088.613037109375 2547.718994140625 C 2090.524658203125 2549.630615234375 2093.066162109375 2550.683349609375 2095.76953125 2550.683349609375 M 2095.769287109375 2551.683349609375 C 2092.923583984375 2551.683349609375 2090.077392578125 2550.59765625 2087.906005859375 2548.426025390625 C 2083.56396484375 2544.0830078125 2083.56396484375 2537.04296875 2087.906005859375 2532.699951171875 L 2095.76904296875 2524.837890625 L 2103.632080078125 2532.699951171875 C 2107.97509765625 2537.04296875 2107.97509765625 2544.0830078125 2103.632080078125 2548.426025390625 C 2101.461181640625 2550.59765625 2098.615234375 2551.683349609375 2095.769287109375 2551.683349609375 Z" stroke="none" fill="#347ae1"/>
    </g>
  </g>
</svg>
